<svg width="187" height="171" viewBox="0 0 187 171" fill="none" xmlns="http://www.w3.org/2000/svg">
	<rect x="3.59016" y="3.59016" width="179.639" height="163.82" rx="30.6885" fill="url(#paint0_linear_14_59)"/>
	<rect x="3.59016" y="3.59016" width="179.639" height="163.82" rx="30.6885" stroke="#1E2939" stroke-width="6.81967"/>
	<mask id="path-2-outside-1_14_59" maskUnits="userSpaceOnUse" x="13" y="28" width="75" height="96" fill="black">
		<rect fill="white" x="13" y="28" width="75" height="96"/>
		<path d="M66.1614 59.7618C66.1614 55.1665 64.9426 51.8899 62.5051 49.9319C60.1076 47.9739 56.731 46.9949 52.3755 46.9949H35.1732V73.0082H52.3755C56.731 73.0082 60.1076 71.9493 62.5051 69.8315C64.9426 67.7136 66.1614 64.3571 66.1614 59.7618ZM84.4426 59.6419C84.4426 70.0712 81.8053 77.4436 76.5307 81.7592C71.2561 86.0748 63.7239 88.2326 53.9339 88.2326H35.1732V120H16.832V31.6506H55.3125C64.1834 31.6506 71.2561 33.9283 76.5307 38.4836C81.8053 43.0389 84.4426 50.0917 84.4426 59.6419Z"/>
	</mask>
	<path d="M66.1614 59.7618C66.1614 55.1665 64.9426 51.8899 62.5051 49.9319C60.1076 47.9739 56.731 46.9949 52.3755 46.9949H35.1732V73.0082H52.3755C56.731 73.0082 60.1076 71.9493 62.5051 69.8315C64.9426 67.7136 66.1614 64.3571 66.1614 59.7618ZM84.4426 59.6419C84.4426 70.0712 81.8053 77.4436 76.5307 81.7592C71.2561 86.0748 63.7239 88.2326 53.9339 88.2326H35.1732V120H16.832V31.6506H55.3125C64.1834 31.6506 71.2561 33.9283 76.5307 38.4836C81.8053 43.0389 84.4426 50.0917 84.4426 59.6419Z" fill="#1E2939"/>
	<path d="M62.5051 49.9319L60.3483 52.5729L60.359 52.5816L60.3697 52.5902L62.5051 49.9319ZM35.1732 46.9949V43.585H31.7633V46.9949H35.1732ZM35.1732 73.0082H31.7633V76.418H35.1732V73.0082ZM62.5051 69.8315L60.2687 67.2575L60.2582 67.2666L60.2477 67.2759L62.5051 69.8315ZM35.1732 88.2326V84.8227H31.7633V88.2326H35.1732ZM35.1732 120V123.41H38.583V120H35.1732ZM16.832 120H13.4221V123.41H16.832V120ZM16.832 31.6506V28.2408H13.4221V31.6506H16.832ZM66.1614 59.7618H69.5712C69.5712 54.6343 68.2068 50.1382 64.6405 47.2735L62.5051 49.9319L60.3697 52.5902C61.6784 53.6415 62.7515 55.6987 62.7515 59.7618H66.1614ZM62.5051 49.9319L64.662 47.2908C61.4496 44.6674 57.2022 43.585 52.3755 43.585V46.9949V50.4047C56.2599 50.4047 58.7655 51.2803 60.3483 52.5729L62.5051 49.9319ZM52.3755 46.9949V43.585H35.1732V46.9949V50.4047H52.3755V46.9949ZM35.1732 46.9949H31.7633V73.0082H35.1732H38.583V46.9949H35.1732ZM35.1732 73.0082V76.418H52.3755V73.0082V69.5984H35.1732V73.0082ZM52.3755 73.0082V76.418C57.2598 76.418 61.5473 75.2272 64.7626 72.387L62.5051 69.8315L60.2477 67.2759C58.6679 68.6713 56.2022 69.5984 52.3755 69.5984V73.0082ZM62.5051 69.8315L64.7415 72.4054C68.1976 69.4026 69.5712 64.9134 69.5712 59.7618H66.1614H62.7515C62.7515 63.8007 61.6876 66.0246 60.2687 67.2575L62.5051 69.8315ZM84.4426 59.6419H81.0328C81.0328 69.5977 78.5099 75.7342 74.3715 79.1202L76.5307 81.7592L78.69 84.3983C85.1007 79.1531 87.8525 70.5447 87.8525 59.6419H84.4426ZM76.5307 81.7592L74.3715 79.1202C69.9232 82.7596 63.2724 84.8227 53.9339 84.8227V88.2326V91.6424C64.1753 91.6424 72.5891 89.3899 78.69 84.3983L76.5307 81.7592ZM53.9339 88.2326V84.8227H35.1732V88.2326V91.6424H53.9339V88.2326ZM35.1732 88.2326H31.7633V120H35.1732H38.583V88.2326H35.1732ZM35.1732 120V116.59H16.832V120V123.41H35.1732V120ZM16.832 120H20.2418V31.6506H16.832H13.4221V120H16.832ZM16.832 31.6506V35.0605H55.3125V31.6506V28.2408H16.832V31.6506ZM55.3125 31.6506V35.0605C63.5945 35.0605 69.8007 37.1768 74.302 41.0642L76.5307 38.4836L78.7595 35.903C72.7116 30.6798 64.7723 28.2408 55.3125 28.2408V31.6506ZM76.5307 38.4836L74.302 41.0642C78.5778 44.757 81.0328 50.6983 81.0328 59.6419H84.4426H87.8525C87.8525 49.4851 85.0329 41.3209 78.7595 35.903L76.5307 38.4836Z" fill="white" mask="url(#path-2-outside-1_14_59)"/>
	<mask id="path-4-outside-2_14_59" maskUnits="userSpaceOnUse" x="102.82" y="31" width="77" height="106" fill="black">
		<rect fill="white" x="102.82" y="31" width="77" height="106"/>
		<path d="M106.518 34.834H127.031V115.351H175.648V133H106.518V34.834Z"/>
	</mask>
	<path d="M106.518 34.834H127.031V115.351H175.648V133H106.518V34.834Z" fill="white"/>
	<path d="M106.518 34.834V31.4242H103.109V34.834H106.518ZM127.031 34.834H130.441V31.4242H127.031V34.834ZM127.031 115.351H123.621V118.761H127.031V115.351ZM175.648 115.351H179.057V111.942H175.648V115.351ZM175.648 133V136.41H179.057V133H175.648ZM106.518 133H103.109V136.41H106.518V133ZM106.518 34.834V38.2438H127.031V34.834V31.4242H106.518V34.834ZM127.031 34.834H123.621V115.351H127.031H130.441V34.834H127.031ZM127.031 115.351V118.761H175.648V115.351V111.942H127.031V115.351ZM175.648 115.351H172.238V133H175.648H179.057V115.351H175.648ZM175.648 133V129.59H106.518V133V136.41H175.648V133ZM106.518 133H109.928V34.834H106.518H103.109V133H106.518Z" fill="#1E2939" mask="url(#path-4-outside-2_14_59)"/>
	<defs>
		<linearGradient id="paint0_linear_14_59" x1="73.5169" y1="7" x2="175.953" y2="115.346" gradientUnits="userSpaceOnUse">
			<stop stop-color="#46EDD5"/>
			<stop offset="1" stop-color="#288779"/>
		</linearGradient>
	</defs>
</svg>
